<svg width="800" height="600" xmlns="http://www.w3.org/2000/svg">

 <g>
  <title>Layer 1</title>
  <g>
   <path fill="#0260FF" d="m400,317c9.3888,0 17,-7.6112 17,-17c0,-9.38884 -7.6112,-17 -17,-17c-9.38886,0 -17,7.61116 -17,17c0,9.3888 7.61114,17 17,17zm5.3034,-26.08069c0.2582,-0.91697 -0.6317,-1.4592 -1.4444,-0.88021l-11.34485,8.082c-0.88137,0.6279 -0.74273,1.8789 0.20825,1.8789l2.9874,0l0,-0.0232l5.8223,0l-4.7441,1.674l-2.0914,7.4299c-0.2581,0.917 0.6316,1.4592 1.4444,0.8802l11.3449,-8.082c0.8813,-0.6279 0.7426,-1.8789 -0.2083,-1.8789l-4.5303,0l2.5561,-9.08069z" clip-rule="evenodd" fill-rule="evenodd"/>
  </g>
  <text font-weight="bold" font-style="normal" transform="matrix(0.972133 0 0 1.42633 5.87115 -118.205)" stroke="#000" xml:space="preserve" text-anchor="start" font-family="'Varta'" font-size="24" id="svg_6" y="300.33333" x="425.99998" stroke-width="0" fill="#000000">Courseify</text>
 </g>
</svg>